# xmcd CD database file
# Copyright (C) 1993-1998 Ti Kan
#
# Track frame offsets:
# 187
# 11972
# 26982
# 37332
# 48235
# 61807
# 73375
# 86007
#
# Disc length: 1285 seconds
# Revision: 0
# Processed by: cddbd v1.4b41PL1 Copyright (c) Steve Scherf et al.
# Submitted via: CDSpectrumPro v3.2.328
#
DISCID=75050308
DTITLE=Floyd Cramer - Floyd Cramer - Collector's Series
DYEAR=1900
DGENRE=
TTITLE0=Last Date
TTITLE1=For The Good Times
TTITLE2=Tennessee Waltz
TTITLE3=Green, Green, Grass Of Home
TTITLE4=Blue Bayou
TTITLE5=Honey
TTITLE6=Born To Lose
TTITLE7=Blue Eyes Crying In The Rain
EXTD=
EXTT0=
EXTT1=
EXTT2=
EXTT3=
EXTT4=
EXTT5=
EXTT6=
EXTT7=
PLAYORDER=
